<svg width="177" height="104" viewBox="0 0 177 104" fill="none" xmlns="http://www.w3.org/2000/svg">
<path d="M49.3813 35.6714L45.8801 5.57666L53.5414 6.87109L54.6935 26.3984L54.9316 26.4387L63.0515 8.4779L69.2982 9.53333L71.0595 29.2068L71.2976 29.247L78.8223 11.1425L86.4696 12.4346L73.2896 39.7109L66.6087 38.5821L64.3796 20.3134L64.1555 20.2755L56.0481 36.7978L49.3813 35.6714ZM91.4373 30.1576L89.3643 42.4269L82.5153 41.2697L87.3618 12.5853L93.9866 13.7046L92.1077 24.8254L92.3458 24.8657C93.0554 23.6218 94.0242 22.7194 95.2522 22.1586C96.4895 21.5994 97.9112 21.4554 99.5172 21.7268C101.03 21.9823 102.29 22.5409 103.297 23.4025C104.305 24.2548 105.015 25.3399 105.426 26.6579C105.847 27.9775 105.915 29.4488 105.631 31.0719L103.314 44.7838L96.4654 43.6266L98.5549 31.2593C98.7662 30.0657 98.6252 29.0815 98.1318 28.3067C97.6385 27.5318 96.8409 27.0513 95.7391 26.8652C95.0201 26.7437 94.3584 26.7951 93.7538 27.0195C93.1602 27.2362 92.6604 27.6079 92.2544 28.1348C91.8578 28.6632 91.5855 29.3375 91.4373 30.1576ZM111.621 46.5618C110.248 46.3299 109.068 45.8953 108.081 45.2579C107.105 44.6127 106.387 43.7712 105.929 42.7334C105.481 41.6878 105.377 40.4553 105.617 39.036C105.819 37.8408 106.2 36.8679 106.759 36.1172C107.318 35.3665 108.009 34.7967 108.834 34.4078C109.658 34.0189 110.573 33.7749 111.579 33.676C112.587 33.5677 113.645 33.5592 114.753 33.6504C115.995 33.745 117 33.7947 117.767 33.7995C118.536 33.795 119.109 33.7044 119.484 33.5278C119.871 33.3434 120.101 33.0318 120.175 32.5929L120.187 32.5229C120.309 31.8039 120.155 31.2065 119.726 30.7307C119.298 30.255 118.663 29.9461 117.823 29.8041C116.917 29.6511 116.156 29.7241 115.539 30.0232C114.922 30.3223 114.48 30.8047 114.214 31.4704L107.935 30.179C108.342 28.9034 109.021 27.8174 109.969 26.9213C110.929 26.0173 112.14 25.3864 113.602 25.0285C115.076 24.6628 116.774 24.6425 118.698 24.9675C120.07 25.1994 121.308 25.5765 122.411 26.099C123.515 26.6121 124.444 27.2493 125.199 28.0107C125.956 28.7628 126.493 29.6218 126.81 30.5877C127.136 31.5552 127.203 32.6086 127.01 33.7477L124.54 48.37L118.097 47.2815L118.603 44.2842L118.435 44.2558C117.929 44.9194 117.335 45.4529 116.652 45.8561C115.979 46.2609 115.219 46.5216 114.374 46.638C113.537 46.756 112.62 46.7306 111.621 46.5618ZM114.493 42.4372C115.231 42.5618 115.919 42.5245 116.557 42.325C117.206 42.1272 117.751 41.7968 118.194 41.3339C118.639 40.8616 118.921 40.2753 119.039 39.575L119.384 37.5301C119.171 37.5997 118.917 37.6529 118.623 37.6896C118.338 37.7279 118.026 37.7567 117.686 37.7762C117.347 37.7957 117 37.8043 116.645 37.8019C116.29 37.7996 115.949 37.7949 115.624 37.788C114.962 37.7818 114.385 37.8475 113.891 37.9849C113.406 38.124 113.014 38.3457 112.713 38.6502C112.422 38.9469 112.238 39.3287 112.159 39.7955C112.039 40.5052 112.2 41.0893 112.641 41.548C113.091 42.0083 113.709 42.3047 114.493 42.4372ZM142.534 29.2828L141.682 34.325L128.11 32.0319L128.962 26.9898L142.534 29.2828ZM132.676 22.3159L139.525 23.4731L136.162 43.3757C136.091 43.7959 136.099 44.1477 136.185 44.4313C136.283 44.707 136.453 44.923 136.695 45.0792C136.939 45.2261 137.244 45.3303 137.608 45.3919C137.869 45.436 138.149 45.4592 138.446 45.4614C138.754 45.4559 138.986 45.4471 139.142 45.435L139.343 50.5542C139 50.5924 138.518 50.631 137.897 50.6701C137.285 50.7108 136.565 50.6804 135.737 50.5789C134.119 50.3822 132.773 49.9628 131.7 49.3205C130.638 48.6705 129.885 47.8134 129.441 46.7491C129.006 45.6864 128.921 44.4283 129.185 42.9748L132.676 22.3159ZM5.26075 45.0718L6.21205 39.4413L30.4565 43.5376L29.5052 49.1681L20.8075 47.6985L16.9123 70.7525L10.0774 69.5976L13.9725 46.5437L5.26075 45.0718ZM35.9459 61.3488L33.8729 73.6181L27.024 72.4609L31.8704 43.7765L38.4953 44.8958L36.6163 56.0166L36.8544 56.0569C37.564 54.813 38.5328 53.9107 39.7608 53.3498C40.9982 52.7906 42.4199 52.6466 44.0259 52.918C45.5385 53.1735 46.7983 53.7321 47.8052 54.5937C48.8137 55.446 49.5235 56.5311 49.9347 57.8491C50.3552 59.1687 50.4235 60.64 50.1397 62.2631L47.8229 75.975L40.974 74.8179L43.0635 62.4505C43.2748 61.2569 43.1338 60.2727 42.6404 59.4979C42.1471 58.723 41.3495 58.2425 40.2477 58.0564C39.5287 57.9349 38.867 57.9864 38.2624 58.2107C37.6688 58.4274 37.169 58.7991 36.7631 59.326C36.3665 59.8544 36.0941 60.5287 35.9459 61.3488ZM60.1139 78.4695C57.8636 78.0893 55.9964 77.3176 54.5122 76.1545C53.039 74.9836 52.0031 73.4976 51.4047 71.6966C50.8171 69.8878 50.7166 67.8396 51.1031 65.552C51.4786 63.3297 52.2456 61.4617 53.4041 59.9479C54.5642 58.4248 56.0207 57.336 57.7736 56.6813C59.528 56.0174 61.4884 55.8684 63.6546 56.2344C65.186 56.4931 66.5463 56.9679 67.7358 57.6586C68.9252 58.3494 69.9032 59.2397 70.6699 60.3297C71.4365 61.4196 71.9606 62.6942 72.2423 64.1536C72.5255 65.6036 72.518 67.211 72.2199 68.9758L71.9311 70.6845L53.2331 67.5253L53.9052 63.5476L66.2305 65.6301C66.3442 64.9002 66.2811 64.222 66.0412 63.5957C65.8013 62.9693 65.414 62.4477 64.8794 62.0308C64.3557 61.6062 63.7157 61.33 62.9594 61.2022C62.1937 61.0728 61.4782 61.1296 60.8129 61.3726C60.1492 61.6062 59.5902 61.9871 59.136 62.5154C58.6834 63.0344 58.3854 63.6611 58.2421 64.3956L57.5582 68.4434C57.4099 69.3211 57.4525 70.1206 57.686 70.8419C57.921 71.5539 58.3252 72.1456 58.8987 72.617C59.4721 73.0885 60.1976 73.3983 61.0753 73.5466C61.6823 73.6492 62.2474 73.6582 62.7707 73.5738C63.2939 73.4893 63.7606 73.3137 64.1706 73.0468C64.5807 72.7799 64.9146 72.4234 65.1725 71.9772L71.4304 73.2218C70.9308 74.5875 70.1491 75.7184 69.0853 76.6143C68.0325 77.5024 66.7429 78.1153 65.2164 78.4528C63.6916 78.781 61.9907 78.7866 60.1139 78.4695ZM74.1659 88.7237C73.3442 88.5848 72.5803 88.3885 71.874 88.1348C71.1662 87.8903 70.5682 87.6212 70.0801 87.3275L72.4328 82.6109C73.0672 82.9486 73.6521 83.1818 74.1873 83.3107C74.7319 83.4411 75.2184 83.4321 75.6469 83.2836C76.0831 83.146 76.4536 82.8292 76.7582 82.3333L77.1332 81.734L73.2533 58.1443L80.4244 59.3559L81.7945 75.3762L82.0186 75.4141L88.6319 60.7426L95.845 61.9613L83.7528 84.1633C83.1619 85.2736 82.4312 86.2162 81.5607 86.9911C80.6981 87.7769 79.6585 88.3311 78.4419 88.6538C77.2346 88.978 75.8093 89.0013 74.1659 88.7237ZM118.264 67.2186C118.344 66.1757 118.064 65.3072 117.422 64.613C116.792 63.911 115.799 63.4456 114.446 63.2169C113.549 63.0654 112.782 63.0559 112.145 63.1884C111.508 63.3209 111.006 63.5673 110.638 63.9276C110.271 64.2787 110.039 64.7148 109.941 65.2361C109.85 65.6625 109.87 66.0549 110.001 66.4132C110.142 66.7732 110.374 67.1099 110.695 67.4236C111.028 67.7295 111.439 68.0199 111.931 68.295C112.422 68.5701 112.983 68.8329 113.613 69.0834L115.983 70.0602C117.35 70.6081 118.532 71.2303 119.529 71.9269C120.534 72.625 121.346 73.3912 121.964 74.2255C122.591 75.0613 123.018 75.9738 123.244 76.9629C123.471 77.952 123.492 79.0216 123.307 80.1716C122.992 81.9815 122.272 83.4589 121.147 84.6037C120.022 85.7486 118.551 86.5229 116.735 86.9268C114.928 87.3322 112.829 87.333 110.439 86.9291C108.039 86.5236 106.009 85.8108 104.347 84.7905C102.685 83.7702 101.483 82.4434 100.741 80.8102C99.9985 79.177 99.8028 77.2376 100.153 74.9919L106.792 76.1136C106.692 77.0474 106.809 77.8596 107.144 78.55C107.479 79.2404 108.002 79.809 108.714 80.2559C109.436 80.7043 110.305 81.0145 111.323 81.1864C112.257 81.3442 113.072 81.3522 113.768 81.2106C114.473 81.0705 115.041 80.8063 115.472 80.418C115.903 80.0298 116.171 79.547 116.279 78.9697C116.361 78.4265 116.271 77.9359 116.009 77.4979C115.748 77.0505 115.301 76.6292 114.666 76.2339C114.043 75.8308 113.229 75.4196 112.224 75.0001L109.345 73.7934C106.958 72.8042 105.157 71.5539 103.943 70.0427C102.73 68.5221 102.313 66.6748 102.689 64.5007C102.98 62.7251 103.719 61.2508 104.906 60.0781C106.093 58.9053 107.6 58.089 109.426 57.6292C111.251 57.1693 113.252 57.1232 115.427 57.4908C117.65 57.8662 119.514 58.5702 121.02 59.6026C122.537 60.6272 123.634 61.893 124.311 63.4C124.988 64.9069 125.186 66.5537 124.903 68.3403L118.264 67.2186ZM129.434 90.1384C128.062 89.9065 126.882 89.4719 125.895 88.8345C124.918 88.1894 124.201 87.3479 123.742 86.31C123.295 85.2644 123.191 84.0319 123.431 82.6127C123.633 81.4175 124.013 80.4445 124.572 79.6939C125.131 78.9432 125.823 78.3734 126.647 77.9844C127.472 77.5955 128.387 77.3516 129.393 77.2526C130.4 77.1443 131.458 77.1358 132.566 77.227C133.809 77.3216 134.813 77.3713 135.581 77.3762C136.35 77.3716 136.922 77.2811 137.298 77.1044C137.684 76.92 137.915 76.6084 137.989 76.1695L138.001 76.0995C138.122 75.3805 137.969 74.7832 137.54 74.3074C137.111 73.8316 136.477 73.5227 135.636 73.3807C134.731 73.2277 133.969 73.3007 133.352 73.5998C132.735 73.8989 132.293 74.3813 132.027 75.047L125.748 73.7557C126.156 72.48 126.834 71.3941 127.783 70.4979C128.742 69.594 129.953 68.9631 131.416 68.6051C132.889 68.2395 134.588 68.2191 136.511 68.5441C137.884 68.776 139.121 69.1532 140.224 69.6756C141.328 70.1887 142.258 70.826 143.013 71.5874C143.769 72.3394 144.306 73.1984 144.623 74.1644C144.949 75.1319 145.016 76.1852 144.824 77.3244L142.353 91.9467L135.91 90.8581L136.417 87.8608L136.249 87.8324C135.743 88.4961 135.149 89.0295 134.466 89.4327C133.792 89.8376 133.033 90.0982 132.187 90.2146C131.351 90.3326 130.433 90.3073 129.434 90.1384ZM132.306 86.0138C133.044 86.1385 133.732 86.1011 134.371 85.9017C135.019 85.7039 135.565 85.3735 136.008 84.9105C136.452 84.4382 136.734 83.852 136.852 83.1517L137.198 81.1068C136.984 81.1764 136.731 81.2295 136.436 81.2662C136.151 81.3045 135.839 81.3334 135.5 81.3529C135.16 81.3723 134.813 81.3809 134.458 81.3786C134.103 81.3762 133.763 81.3716 133.438 81.3646C132.776 81.3585 132.198 81.4241 131.704 81.5616C131.22 81.7006 130.827 81.9224 130.526 82.2268C130.236 82.5235 130.051 82.9053 129.972 83.3722C129.852 84.0818 130.013 84.666 130.454 85.1247C130.905 85.5849 131.522 85.8813 132.306 86.0138ZM146.623 100.966C145.802 100.827 145.038 100.631 144.331 100.377C143.624 100.133 143.026 99.8635 142.538 99.5697L144.89 94.8531C145.525 95.1908 146.11 95.4241 146.645 95.5529C147.189 95.6834 147.676 95.6743 148.104 95.5258C148.541 95.3883 148.911 95.0715 149.216 94.5755L149.591 93.9762L145.711 70.3865L152.882 71.5982L154.252 87.6185L154.476 87.6563L161.089 72.9849L168.302 74.2036L156.21 96.4056C155.619 97.5158 154.889 98.4584 154.018 99.2333C153.156 100.019 152.116 100.573 150.899 100.896C149.692 101.22 148.267 101.244 146.623 100.966Z" fill="black"/>
</svg>
